#!OML:ASF E:\Steps\Project 1\Capture day 1\Session 2\Subject.ASF
:FULLY-SPECIFIED
:DEGREES
94
root 8.89083 16.3083 31.4555 -156.279 0.847942 179.576
lowerback -27.3022 -1.78153 -4.87297
upperback -2.01159 -0.117419 -0.44882
thorax 13.0141 -0.0440272 2.31784
lowerneck -0.696697 -2.95791 -3.47255
upperneck -10.6306 -2.65835 8.76979
head -3.16207 -1.20146 3.60439
rclavicle -5.86415e-015 2.38542e-015
rhumerus -33.0761 -17.896 -81.0226
rradius 29.068
rwrist 2.39339
rhand -8.26972 -53.0121
rfingers 7.12502
rthumb -162.351 97.7689
lclavicle -5.86415e-015 2.38542e-015
lhumerus -27.4975 1.15496 84.1422
lradius 22.6098
lwrist -4.86611
lhand -22.2472 -15.7286
lfingers 7.12502
lthumb 4.17011 14.2104
rfemur -21.143 7.36967 18.7171
rtibia 8.97874
rfoot -20.1085 -6.97688
rtoes -30.2726
lfemur -21.2814 -9.35317 -18.3585
ltibia 7.78461
lfoot -8.76101 3.95378
ltoes -44.1005
95
root 8.89111 16.3075 31.4549 -156.251 0.83036 179.55
lowerback -27.2793 -1.79651 -4.88603
upperback -2.05948 -0.124743 -0.470172
thorax 12.9465 -0.0414083 2.29876
lowerneck -0.683106 -2.94463 -3.43103
upperneck -10.6225 -2.63384 8.81259
head -3.16379 -1.19154 3.61139
rclavicle -9.93923e-017 2.10712e-014
rhumerus -33.1769 -17.951 -81.0157
rradius 29.0897
rwrist 2.45279
rhand -8.3882 -53.16
rfingers 7.12502
rthumb -162.465 97.6108
lclavicle -9.93923e-017 2.10712e-014
lhumerus -27.4616 1.44083 83.9804
lradius 22.353
lwrist -5.12305
lhand -22.4277 -16.4797
lfingers 7.12502
lthumb 3.99578 13.4625
rfemur -21.1939 7.38905 18.6863
rtibia 9.03714
rfoot -20.0745 -7.01339
rtoes -30.3013
lfemur -21.3067 -9.47837 -18.3466
ltibia 7.73668
lfoot -8.69965 4.01038
ltoes -44.0155
96
root 8.89167 16.3067 31.4544 -156.244 0.808028 179.543
lowerback -27.253 -1.80478 -4.88736
upperback -2.07719 -0.136 -0.465057
thorax 12.9125 -0.0447926 2.30131
lowerneck -0.624072 -2.96002 -3.45277
upperneck -10.7368 -2.63261 8.8874
head -3.21385 -1.1909 3.647
rclavicle 4.12478e-015 -3.4191e-014
rhumerus -33.2298 -17.9247 -81.0017
rradius 29.1424
rwrist 2.45595
rhand -8.45143 -53.2423
rfingers 7.12502
rthumb -162.526 97.5231
lclavicle 4.12478e-015 -3.4191e-014
lhumerus -27.3835 1.68368 83.9198
lradius 22.1943
lwrist -5.30214
lhand -22.2697 -16.2073
lfingers 7.12502
lthumb 4.14836 13.7321
rfemur -21.2192 7.28272 18.6971
rtibia 9.05413
rfoot -20.0859 -6.98906
rtoes -30.2697
lfemur -21.319 -9.49968 -18.3536
ltibia 7.76462
lfoot -8.62873 4.09768
ltoes -44.6501
97
root 8.88946 16.3061 31.4527 -156.263 0.836068 179.572
lowerback -27.2264 -1.77846 -4.81378
upperback -2.08108 -0.128843 -0.454681
thorax 12.8925 -0.0378515 2.27333
lowerneck -0.623375 -2.95326 -3.5302
upperneck -10.7693 -2.61786 8.92338
head -3.22541 -1.18097 3.67531
rclavicle 3.47873e-016 -3.57812e-015
rhumerus -33.2536 -17.8922 -80.9723
rradius 29.1606
rwrist 2.50067
rhand -8.36675 -53.2507
rfingers 7.12502
rthumb -162.444 97.522
lclavicle 3.47873e-016 -3.57812e-015
lhumerus -27.3146 1.87178 83.8783
lradius 22.025
lwrist -5.46424
lhand -22.1126 -16.1095
lfingers 7.12502
lthumb 4.30006 13.8268
rfemur -21.1757 7.01056 18.7724
rtibia 9.01179
rfoot -20.1395 -6.77861
rtoes -30.3928
lfemur -21.2695 -9.39352 -18.3868
ltibia 7.76309
lfoot -8.62108 4.16159
ltoes -45.4274
98
root 8.8833 16.3031 31.4459 -156.268 0.933107 179.632
lowerback -27.3269 -1.71486 -4.65003
upperback -2.05445 -0.0903719 -0.463477
thorax 12.9737 -0.014198 2.18326
lowerneck -0.673418 -2.92072 -3.59225
upperneck -10.7495 -2.57588 8.92588
head -3.21167 -1.15655 3.68547
rclavicle 6.65929e-015 2.38542e-015
rhumerus -33.2253 -17.8384 -80.979
rradius 29.1497
rwrist 2.48749
rhand -8.31246 -53.3522
rfingers 7.12502
rthumb -162.392 97.4251
lclavicle 6.65929e-015 2.38542e-015
lhumerus -27.2309 2.08691 83.7971
lradius 21.8681
lwrist -5.57133
lhand -22.0451 -16.7635
lfingers 7.12502
lthumb 4.36526 13.1715
rfemur -21.1497 6.87792 18.8206
rtibia 8.99936
rfoot -20.141 -6.62303
rtoes -30.7352
lfemur -21.1575 -9.48206 -18.3714
ltibia 7.64185
lfoot -8.60467 4.36354
ltoes -45.6541
99
root 8.88512 16.3027 31.4448 -156.238 0.921253 179.63
lowerback -27.3373 -1.76876 -4.63815
upperback -2.0833 -0.164227 -0.434415
thorax 12.9507 -0.0451388 2.18239
lowerneck -0.628559 -2.88031 -3.67499
upperneck -10.7912 -2.51512 8.97872
head -3.23818 -1.12562 3.72169
rclavicle -4.32357e-015 -1.35174e-014
rhumerus -33.1967 -17.6213 -81.0286
rradius 29.1056
rwrist 2.38816
rhand -8.37757 -53.4425
rfingers 7.12502
rthumb -162.454 97.3292
lclavicle -4.32357e-015 -1.35174e-014
lhumerus -27.2259 2.56383 83.6222
lradius 21.6935
lwrist -5.79337
lhand -22.0402 -17.7459
lfingers 7.12502
lthumb 4.36997 12.189
rfemur -21.2082 6.90729 18.8236
rtibia 9.08163
rfoot -20.0969 -6.73189
rtoes -31.2304
lfemur -21.1728 -9.53768 -18.3589
ltibia 7.61478
lfoot -8.61194 4.38048
ltoes -45.1433
100
root 8.8864 16.304 31.4445 -156.226 0.902809 179.62
lowerback -27.3151 -1.80614 -4.63152
upperback -2.11444 -0.216825 -0.410064
thorax 12.9061 -0.0663296 2.18707
lowerneck -0.600969 -2.85222 -3.75119
upperneck -10.8076 -2.47457 9.02251
head -3.25136 -1.10464 3.75256
rclavicle 2.28602e-015 4.41302e-014
rhumerus -33.202 -17.521 -81.0192
rradius 29.0433
rwrist 2.39658
rhand -8.41527 -53.2804
rfingers 7.12502
rthumb -162.491 97.4881
lclavicle 2.28602e-015 4.41302e-014
lhumerus -27.2524 2.86008 83.5291
lradius 21.6146
lwrist -5.80129
lhand -21.5338 -17.3238
lfingers 7.12502
lthumb 4.85891 12.6005
rfemur -21.2219 6.84776 18.8098
rtibia 9.08939
rfoot -20.1072 -6.5832
rtoes -31.0614
lfemur -21.1899 -9.70415 -18.3264
ltibia 7.59139
lfoot -8.65989 4.54684
ltoes -44.838
